<?xml version="1.0"?>
<svg version="1.1" xmlns="http://www.w3.org/2000/svg" width="540px" height="75px" style=""><path fill="#4361ee" d="M83.68,59.58l0-24l-1.44,3.6l-7.44,15.12l-3.84,0.24l-7.44-15.6l-1.2-3.36l0,24l4.56,0.96l0,2.88l-12.96,0l0-2.88l4.08-0.96l0-25.92l-4.08-0.96l0-2.64l10.8-0.24l8.688,19.2l9.072-18.96l10.08-0.24l0,2.88l-4.08,0.96l0,25.92l4.08,0.96l0,2.88l-13.44,0l0-2.88z M101.9488,59.628l10.944-29.568l4.8-0.24l10.656,29.808l3.984,0.912l0,2.88l-13.92,0l0-2.88l4.464-0.912l-1.824-5.328l-12.48,0l-1.872,5.328l4.512,0.912l0,2.88l-13.2,0l0-2.88z M119.7568,50.46l-4.848-14.448l-5.04,14.448l9.888,0z M141.8656,59.58l0-25.92l-4.08-0.96l0-2.64l9.12-0.24l5.28,0c6.768,0,10.8,3.264,10.8,8.64c0,4.656-2.112,7.824-6.24,9.36c0.768,0.672,1.632,1.92,2.88,4.32l3.792,7.632l3.408,0.768l0,2.88l-7.2,0l-4.08-8.88c-2.256-4.8-3.312-5.76-6.48-5.76l-2.16,0l0,10.8l4.08,0.96l0,2.88l-13.2,0l0-2.88z M146.9056,45.18l3.6,0c4.704,0,7.44-2.208,7.44-6c0-3.216-2.496-5.52-6-5.52l-5.04,0l0,11.52z M172.5184,63.42l0-2.88l4.08-0.96l0-25.92l-4.08-0.96l0-2.64l13.68-0.24l0,2.88l-4.56,0.96l0,10.56l4.416,0l8.304-14.16l7.92-0.24l0,2.88l-4.752,0.96l-7.296,12.144l9.888,13.776l4.08,0.96l0,2.88l-13.68,0l0-2.88l4.08-0.96l-8.256-11.52l-4.704,0l0,11.52l4.56,0.96l0,2.88l-13.68,0z M218.2912,43.98l11.04,0l0,3.84l-11.04,0l0,11.76l11.04,0l0.96-4.8l3.12,0l0,8.64l-24.24,0l0-2.88l4.08-0.96l0-25.92l-4.08-0.96l0-2.64l9.12-0.24l14.64,0l0,8.16l-3.12,0l-1.2-4.32l-10.32,0l0,10.32z M245.824,63.42l0-2.88l4.8-0.96l0-25.92l-6.24,0l-1.2,4.8l-3.12,0l0-8.64l26.16,0l0,8.64l-3.12,0l-1.2-4.8l-6.24,0l0,25.92l4.8,0.96l0,2.88l-14.64,0z M275.9968,59.58l0-25.92l-4.08-0.96l0-2.64l9.12-0.24l5.04,0c7.2,0,11.04,3.84,11.04,9.84c0,7.44-4.8,11.28-12.96,11.28l-3.12,0l0,8.64l4.08,0.96l0,2.88l-13.2,0l0-2.88z M281.0368,47.1l3.12,0c5.28,0,7.92-2.4,7.92-6.72c0-3.84-2.16-6.72-6.24-6.72l-4.8,0l0,13.44z M322.2496,59.58l0.96-5.52l3.36,0l0,9.36l-23.28,0l0-2.88l4.08-0.96l0-25.92l-4.08-0.96l0-2.64l13.2-0.24l0,2.88l-4.08,0.96l0,25.92l9.84,0z M334.5184,59.628l10.944-29.568l4.8-0.24l10.656,29.808l3.984,0.912l0,2.88l-13.92,0l0-2.88l4.464-0.912l-1.824-5.328l-12.48,0l-1.872,5.328l4.512,0.912l0,2.88l-13.2,0l0-2.88z M352.3264,50.46l-4.848-14.448l-5.04,14.448l9.888,0z M394.3552,39.9l-1.296-5.52s-2.544-0.96-6.144-0.96c-6.48,0-10.08,4.8-10.08,13.68c0,8.64,4.32,12.48,10.32,12.48c5.04,0,9.6-3.84,9.6-3.84l1.92,3.12s-4.8,5.04-12,5.04c-9.6,0-15.36-5.76-15.36-16.56c0-11.04,6.24-18,16.08-18c5.28,0,10.8,2.4,10.8,2.4l-0.24,8.16l-3.6,0z M415.168,43.98l11.04,0l0,3.84l-11.04,0l0,11.76l11.04,0l0.96-4.8l3.12,0l0,8.64l-24.24,0l0-2.88l4.08-0.96l0-25.92l-4.08-0.96l0-2.64l9.12-0.24l14.64,0l0,8.16l-3.12,0l-1.2-4.32l-10.32,0l0,10.32z M442.7008,59.58l0-25.92l-4.08-0.96l0-2.64l9.12-0.24l6,0c9.36,0,15.12,5.76,15.12,16.32s-6.24,17.28-15.84,17.28l-14.4,0l0-2.88z M447.7408,59.58l5.52,0c6,0,10.08-4.08,10.08-13.2c0-8.88-3.84-12.72-9.84-12.72l-5.76,0l0,25.92z"/><path fill="#" d=""/></svg>
